<svg viewBox="0 0 350 350" xmlns="http://www.w3.org/2000/svg">
  <defs></defs>
  <g transform="matrix(1, 0, 0, 1, 0, 0)">
    <title>Layer 1</title>
    <rect fill="#fff" stroke="#000" x="25" y="15" width="300" height="300" id="svg_1" rx="50" style="stroke-width: 5px; filter: drop-shadow(0px 20px 0px black);"></rect>
    <g transform="matrix(6.751305, 0, 0, 6.751305, -1231.005859, -426.31601)" style="">
      <path transform="matrix(1 0 0 1 27.009 -39.239)" d="m192.99289,127.10048c0,-0.79 -0.07,-1.54 -0.19,-2.27l-11.3,0l0,4.51l6.47,0c-0.29,1.48 -1.14,2.73 -2.4,3.58l0,3l3.86,0c2.26,-2.09 3.56,-5.17 3.56,-8.82z" style=""></path>
      <path transform="matrix(1 0 0 1 27.009 -39.239)" d="m181.50289,138.83048c3.24,0 5.95,-1.08 7.93,-2.91l-3.86,-3c-1.08,0.72 -2.45,1.16 -4.07,1.16c-3.13,0 -5.78,-2.11 -6.73,-4.96l-3.98,0l0,3.09c1.97,3.92 6.02,6.62 10.71,6.62z" style=""></path>
      <path transform="matrix(1 0 0 1 27.009 -39.239)" d="m174.77289,129.12048c-0.25,-0.72 -0.38,-1.49 -0.38,-2.29c0,-0.8 0.14,-1.57 0.38,-2.29l0,-3.09l-3.98,0c-0.82,1.62 -1.29,3.44 -1.29,5.38c0,1.94 0.47,3.76 1.29,5.38l3.98,-3.09z" style=""></path>
      <path transform="matrix(1 0 0 1 27.009 -39.239)" d="m181.50289,119.58048c1.77,0 3.35,0.61 4.6,1.8l3.42,-3.42c-2.07,-1.94 -4.78,-3.13 -8.02,-3.13c-4.69,0 -8.74,2.7 -10.71,6.62l3.98,3.09c0.95,-2.85 3.6,-4.96 6.73,-4.96z" style=""></path>
    </g>
  </g>
</svg>